curl_17s
version=1
nRows=354
nColumns=3
inDegrees=yes
endheader
time	r_shoulder_elev	r_elbow_flex
13.1900	20.000000	9.578037
13.2000	20.000000	10.008725
13.2100	20.000000	10.488975
13.2200	20.000000	11.022020
13.2300	20.000000	11.610996
13.2400	20.000000	12.258914
13.2500	20.000000	12.968626
13.2600	20.000000	13.742801
13.2700	20.000000	14.583890
13.2800	20.000000	15.494102
13.2900	20.000000	16.475369
13.3000	20.000000	17.529326
13.3100	20.000000	18.657277
13.3200	20.000000	19.860177
13.3300	20.000000	21.138604
13.3400	20.000000	22.492743
13.3500	20.000000	23.922370
13.3600	20.000000	25.426835
13.3700	20.000000	27.005058
13.3800	20.000000	28.655522
13.3900	20.000000	30.376278
13.4000	20.000000	32.164945
13.4100	20.000000	34.018729
13.4200	20.000000	35.934437
13.4300	20.000000	37.908496
13.4400	20.000000	39.936987
13.4500	20.000000	42.015677
13.4600	20.000000	44.140051
13.4700	20.000000	46.305357
13.4800	20.000000	48.506653
13.4900	20.000000	50.738850
13.5000	20.000000	52.996760
13.5100	20.000000	55.275152
13.5200	20.000000	57.568795
13.5300	20.000000	59.872511
13.5400	20.000000	62.181219
13.5500	20.000000	64.489980
13.5600	20.000000	66.794038
13.5700	20.000000	69.088856
13.5800	20.000000	71.370148
13.5900	20.000000	73.633906
13.6000	20.000000	75.876423
13.6100	20.000000	78.094313
13.6200	20.000000	80.284520
13.6300	20.000000	82.444329
13.6400	20.000000	84.571371
13.6500	20.000000	86.663623
13.6600	20.000000	88.719405
13.6700	20.000000	90.737373
13.6800	20.000000	92.716511
13.6900	20.000000	94.656117
13.7000	20.000000	96.555790
13.7100	20.000000	98.415416
13.7200	20.000000	100.235144
13.7300	20.000000	102.015369
13.7400	20.000000	103.756709
13.7500	20.000000	105.459980
13.7600	20.000000	107.126170
13.7700	20.000000	108.756410
13.7800	20.000000	110.351948
13.7900	20.000000	111.914114
13.8000	20.000000	113.444290
13.8100	20.000000	114.943875
13.8200	20.000000	116.414255
13.8300	20.000000	117.856768
13.8400	20.000000	119.272671
13.8500	20.000000	120.663116
13.8600	20.000000	122.029115
13.8700	20.000000	123.371518
13.8800	20.000000	124.690995
13.8900	20.000000	125.988016
13.9000	20.000000	127.262842
13.9100	20.000000	128.000000
13.9200	20.000000	128.000000
13.9300	20.000000	128.000000
13.9400	20.000000	128.000000
13.9500	20.000000	128.000000
13.9600	20.000000	128.000000
13.9700	20.000000	128.000000
13.9800	20.000000	128.000000
13.9900	20.000000	128.000000
14.0000	20.000000	128.000000
14.0100	20.000000	128.000000
14.0200	20.000000	128.000000
14.0300	20.000000	128.000000
14.0400	20.000000	128.000000
14.0500	20.000000	128.000000
14.0600	20.000000	128.000000
14.0700	20.000000	128.000000
14.0800	20.000000	128.000000
14.0900	20.000000	128.000000
14.1000	20.000000	128.000000
14.1100	20.000000	128.000000
14.1200	20.000000	128.000000
14.1300	20.000000	128.000000
14.1400	20.000000	128.000000
14.1500	20.000000	128.000000
14.1600	20.000000	128.000000
14.1700	20.000000	128.000000
14.1800	20.000000	128.000000
14.1900	20.000000	128.000000
14.2000	20.000000	128.000000
14.2100	20.000000	128.000000
14.2200	20.000000	128.000000
14.2300	20.000000	128.000000
14.2400	20.000000	128.000000
14.2500	20.000000	128.000000
14.2600	20.000000	128.000000
14.2700	20.000000	128.000000
14.2800	20.000000	128.000000
14.2900	20.000000	128.000000
14.3000	20.000000	128.000000
14.3100	20.000000	128.000000
14.3200	20.000000	128.000000
14.3300	20.000000	128.000000
14.3400	20.000000	128.000000
14.3500	20.000000	128.000000
14.3600	20.000000	128.000000
14.3700	20.000000	128.000000
14.3800	20.000000	128.000000
14.3900	20.000000	128.000000
14.4000	20.000000	128.000000
14.4100	20.000000	128.000000
14.4200	20.000000	128.000000
14.4300	20.000000	128.000000
14.4400	20.000000	128.000000
14.4500	20.000000	128.000000
14.4600	20.000000	128.000000
14.4700	20.000000	128.000000
14.4800	20.000000	128.000000
14.4900	20.000000	128.000000
14.5000	20.000000	128.000000
14.5100	20.000000	128.000000
14.5200	20.000000	128.000000
14.5300	20.000000	128.000000
14.5400	20.000000	128.000000
14.5500	20.000000	128.000000
14.5600	20.000000	128.000000
14.5700	20.000000	128.000000
14.5800	20.000000	128.000000
14.5900	20.000000	128.000000
14.6000	20.000000	128.000000
14.6100	20.000000	128.000000
14.6200	20.000000	128.000000
14.6300	20.000000	128.000000
14.6400	20.000000	127.026225
14.6500	20.000000	125.613846
14.6600	20.000000	124.177321
14.6700	20.000000	122.719872
14.6800	20.000000	121.244800
14.6900	20.000000	119.755458
14.7000	20.000000	118.255217
14.7100	20.000000	116.747439
14.7200	20.000000	115.235439
14.7300	20.000000	113.722459
14.7400	20.000000	112.211635
14.7500	20.000000	110.705963
14.7600	20.000000	109.208277
14.7700	20.000000	107.721209
14.7800	20.000000	106.247169
14.7900	20.000000	104.788314
14.8000	20.000000	103.346521
14.8100	20.000000	101.923363
14.8200	20.000000	100.520091
14.8300	20.000000	99.137611
14.8400	20.000000	97.776470
14.8500	20.000000	96.436848
14.8600	20.000000	95.118548
14.8700	20.000000	93.820999
14.8800	20.000000	92.543264
14.8900	20.000000	91.284043
14.9000	20.000000	90.041700
14.9100	20.000000	88.814280
14.9200	20.000000	87.599544
14.9300	20.000000	86.394999
14.9400	20.000000	85.197941
14.9500	20.000000	84.005496
14.9600	20.000000	82.814667
14.9700	20.000000	81.622385
14.9800	20.000000	80.425557
14.9900	20.000000	79.221118
15.0000	20.000000	78.006081
15.0100	20.000000	76.777583
15.0200	20.000000	75.532936
15.0300	20.000000	74.269667
15.0400	20.000000	72.985558
15.0500	20.000000	71.678682
15.0600	20.000000	70.347437
15.0700	20.000000	68.990565
15.0800	20.000000	67.607180
15.0900	20.000000	66.196780
15.1000	20.000000	64.759260
15.1100	20.000000	63.294918
15.1200	20.000000	61.804455
15.1300	20.000000	60.288972
15.1400	20.000000	58.749965
15.1500	20.000000	57.189309
15.1600	20.000000	55.609245
15.1700	20.000000	54.012356
15.1800	20.000000	52.401549
15.1900	20.000000	50.780021
15.2000	20.000000	49.151232
15.2100	20.000000	47.518870
15.2200	20.000000	45.886815
15.2300	20.000000	44.259097
15.2400	20.000000	42.639858
15.2500	20.000000	41.033307
15.2600	20.000000	39.443677
15.2700	20.000000	37.875181
15.2800	20.000000	36.331970
15.2900	20.000000	34.818088
15.3000	20.000000	33.337434
15.3100	20.000000	31.893724
15.3200	20.000000	30.490457
15.3300	20.000000	29.130882
15.3400	20.000000	27.817976
15.3500	20.000000	26.554415
15.3600	20.000000	25.342564
15.3700	20.000000	24.184460
15.3800	20.000000	23.081804
15.3900	20.000000	22.035960
15.4000	20.000000	21.047953
15.4100	20.000000	20.118477
15.4200	20.000000	19.247898
15.4300	20.000000	18.436273
15.4400	20.000000	17.683360
15.4500	20.000000	16.988635
15.4600	20.000000	16.351315
15.4700	20.000000	15.770373
15.4800	20.000000	15.244564
15.4900	20.000000	14.772449
15.5000	20.000000	14.352412
15.5100	20.000000	13.982692
15.5200	20.000000	13.661399
15.5300	20.000000	13.386542
15.5400	20.000000	13.156045
15.5500	20.000000	12.967777
15.5600	20.000000	12.819561
15.5700	20.000000	12.709201
15.5800	20.000000	12.634495
15.5900	20.000000	12.593250
15.6000	20.000000	12.583295
15.6100	20.000000	12.602494
15.6200	20.000000	12.648756
15.6300	20.000000	12.720041
15.6400	20.000000	12.814368
15.6500	20.000000	12.929822
15.6600	20.000000	13.064551
15.6700	20.000000	13.216775
15.6800	20.000000	13.384783
15.6900	20.000000	13.566934
15.7000	20.000000	13.761651
15.7100	20.000000	13.967426
15.7200	20.000000	14.182810
15.7300	20.000000	14.406410
15.7400	20.000000	14.636887
15.7500	20.000000	14.872948
15.7600	20.000000	15.113339
15.7700	20.000000	15.356843
15.7800	20.000000	15.602269
15.7900	20.000000	15.848451
15.8000	20.000000	16.094237
15.8100	20.000000	16.338486
15.8200	20.000000	16.580061
15.8300	20.000000	16.817828
15.8400	20.000000	17.050645
15.8500	20.000000	17.277369
15.8600	20.000000	17.496843
15.8700	20.000000	17.707904
15.8800	20.000000	17.909378
15.8900	20.000000	18.100084
15.9000	20.000000	18.278835
15.9100	20.000000	18.444447
15.9200	20.000000	18.595740
15.9300	20.000000	18.731548
15.9400	20.000000	18.850727
15.9500	20.000000	18.952168
15.9600	20.000000	19.034806
15.9700	20.000000	19.097631
15.9800	20.000000	19.139708
15.9900	20.000000	19.160186
16.0000	20.000000	19.158314
16.0100	20.000000	19.133456
16.0200	20.000000	19.085103
16.0300	20.000000	19.012890
16.0400	20.000000	18.916604
16.0500	20.000000	18.796193
16.0600	20.000000	18.651775
16.0700	20.000000	18.483643
16.0800	20.000000	18.292267
16.0900	20.000000	18.078289
16.1000	20.000000	17.842526
16.1100	20.000000	17.585954
16.1200	20.000000	17.309707
16.1300	20.000000	17.015054
16.1400	20.000000	16.703395
16.1500	20.000000	16.376233
16.1600	20.000000	16.035161
16.1700	20.000000	15.681842
16.1800	20.000000	15.317985
16.1900	20.000000	14.945330
16.2000	20.000000	14.565622
16.2100	20.000000	14.180598
16.2200	20.000000	13.791967
16.2300	20.000000	13.401396
16.2400	20.000000	13.010496
16.2500	20.000000	12.620812
16.2600	20.000000	12.233815
16.2700	20.000000	11.850895
16.2800	20.000000	11.473357
16.2900	20.000000	11.102421
16.3000	20.000000	10.739218
16.3100	20.000000	10.384794
16.3200	20.000000	10.040107
16.3300	20.000000	9.706037
16.3400	20.000000	9.383381
16.3500	20.000000	9.072860
16.3600	20.000000	8.775118
16.3700	20.000000	8.490727
16.3800	20.000000	8.220187
16.3900	20.000000	7.963924
16.4000	20.000000	7.722294
16.4100	20.000000	7.495580
16.4200	20.000000	7.283988
16.4300	20.000000	7.087653
16.4400	20.000000	6.906631
16.4500	20.000000	6.740902
16.4600	20.000000	6.590368
16.4700	20.000000	6.454854
16.4800	20.000000	6.334108
16.4900	20.000000	6.227806
16.5000	20.000000	6.135553
16.5100	20.000000	6.056889
16.5200	20.000000	5.991295
16.5300	20.000000	5.938199
16.5400	20.000000	5.896983
16.5500	20.000000	5.866994
16.5600	20.000000	5.847553
16.5700	20.000000	5.837965
16.5800	20.000000	5.837526
16.5900	20.000000	5.845538
16.6000	20.000000	5.861316
16.6100	20.000000	5.884197
16.6200	20.000000	5.913550
16.6300	20.000000	5.948781
16.6400	20.000000	5.989340
16.6500	20.000000	6.034725
16.6600	20.000000	6.084484
16.6700	20.000000	6.138216
16.6800	20.000000	6.195571
16.6900	20.000000	6.256244
16.7000	20.000000	6.319974
16.7100	20.000000	6.386536
16.7200	20.000000	6.455737
